<?xml version="1.0" encoding="utf-8"?>
<!-- Generator: Adobe Illustrator 26.0.1, SVG Export Plug-In . SVG Version: 6.00 Build 0)  -->
<svg version="1.1" id="Слой_1" xmlns="http://www.w3.org/2000/svg" xmlns:xlink="http://www.w3.org/1999/xlink" x="0px" y="0px"
	 viewBox="0 0 300 105" style="enable-background:new 0 0 300 105;" xml:space="preserve">
<style type="text/css">
	.st0{fill:#FFFFFF;}
	.st1{font-family:'HighTowerText-Reg';}
	.st2{font-size:38.1934px;}
</style>
<path class="st0" d="M89.48,14.43c0.19-0.64,0.38-1.27,0.57-1.91l1.72-2.48l2.48-2.48l2.67-1.53l2.1-0.95l-0.76,2.1l-0.57,3.63v0.76
	l0.76-1.34l1.53-1.34l1.72-0.95l-0.38,1.15l-0.19,1.15l-0.19,2.1v3.63l0.57,4.2l0.19,0.81l0.38,0.15v0.25l20.05-10.56l-16.61,16.23
	l0.57,1.15l0.57,1.15l0.76,1.72l0.38,0.95l0.57,1.53l0.95,2.48l0.57,1.34l0.57,1.72l0.38,1.34l0.76,2.1l0.38,1.15l0.19,0.57
	l1.34,2.1l1.15,1.72l0.57,1.15l0.19,1.34l0.19,2.29l-0.19,2.48l-0.57,1.91l-0.95,1.15l-1.53,1.15l-1.53,0.76l-1.34,0.38h-1.47h-1.44
	l-1.1-0.57l-0.76-0.57l-0.76-0.95l-0.54-0.76l-0.41-0.95l-0.19-0.76l-0.38-1.34v-0.38h-1.15l-1.91-0.57l-1.72-0.76l-1.72-0.95
	l-1.34-1.15l-1.34-1.15l-1.34-1.34l-1.15-1.34l-1.72-2.1l-0.76-1.15l-1.15,0.57l-0.95,0.76l-1.15,1.15l-1.15,1.53l-0.95,2.1
	l-0.57,1.72l-0.34,2.2v1.5v2.04l0.72,3.24l1.53,4.97l1.91,4.58l2.29,3.44l1.34,2.67l0.76,1.72l0.38,1.91l0.19,2.67v2.67v1.53
	l-0.19,2.67l-0.76,3.63l-1.53,2.86l-2.48,3.44l-1.91,2.67l-0.19,0.19l-8.02-6.68l-5.35-4.97l-5.73-6.3l-2.55-2.83
	c-0.54-0.69-1.09-1.39-1.63-2.08l-2.89-4.25l-4.01-5.54l-4.01-6.11l-1.31-2.18c-0.14-0.33-0.27-0.66-0.39-1.01l-0.98-3.5v-1.99
	v-1.87v-1.95l0.57-3.35l0.76-2.86l0.38-0.57l0.38-0.38l-1.91,0.38l-1.91,0.57l-1.34,0.76l-0.95,0.38l-1.15,0.57l0.95-3.06l1.53-2.86
	l2.1-3.06l2.67-3.06l3.44-3.44l2.67-2.29l4.01-2.86l2.29-1.53l1.53-1.15l-1.34-0.19l-1.91,0.19l-1.72,0.19l-1.53,0.38l-1.34,0.19
	l2.29-2.29l2.29-1.72c1.65-1.26,3.03-2.09,4.13-2.64c0.04-0.02,0.07-0.03,0.08-0.04c0.55-0.28,0.98-0.46,1.09-0.51
	c0.69-0.3,2.43-1.11,3.11-1.4c1.03-0.44,2.09-0.67,4.2-1.15c0.48-0.11,1.09-0.24,1.91-0.38c1.22-0.21,2.27-0.32,3.06-0.38
	c1.68-0.07,3.36-0.15,5.03-0.22c0.87,0.07,1.73,0.15,2.61,0.22c0.89,0.19,1.78,0.38,2.67,0.57C88.46,14.18,88.97,14.31,89.48,14.43z
	"/>
<path class="st0" d="M62.36,12.91"/>
<path class="st0" d="M80.69,13.29"/>
<text transform="matrix(1 0 0 1 118.23 65.5488)" class="st0 st1 st2">Altair</text>
</svg>
